<?xml version="1.0" encoding="utf-8"?>
<!-- Generator: Adobe Illustrator 19.0.0, SVG Export Plug-In . SVG Version: 6.00 Build 0)  -->
<svg version="1.1" id="Camada_1" xmlns="http://www.w3.org/2000/svg" xmlns:xlink="http://www.w3.org/1999/xlink" x="0px" y="0px"
	 viewBox="317.3 -242 356.3 424.8" style="enable-background:new 317.3 -242 356.3 424.8;" xml:space="preserve">
<style type="text/css">
	.st0{fill:url(#SVGID_1_);}
	.st1{fill:url(#SVGID_2_);}
	.st2{fill:url(#SVGID_3_);}
	.st3{fill:url(#SVGID_4_);}
	.st4{fill:url(#SVGID_5_);}
	.st5{fill:url(#SVGID_6_);}
</style>
<g id="Camada_3">
</g>
<g id="Camada_2">
	<g>
		
			<linearGradient id="SVGID_1_" gradientUnits="userSpaceOnUse" x1="318.7556" y1="278.0789" x2="671.5559" y2="278.0789" gradientTransform="matrix(1 0 0 -1 0 300)">
			<stop  offset="0" style="stop-color:#1F7EB2"/>
			<stop  offset="0.5153" style="stop-color:#004794"/>
			<stop  offset="1" style="stop-color:#1F7EB2"/>
		</linearGradient>
		<path class="st0" d="M664.2-128.4c-8.7-9.4-20.4-9.3-22.2-9.3H346.8c-2.7,0.1-10.2,0.7-17.1,6.2c-9.6,7.6-10.7,18.7-10.9,20.7
			c0.1,130.4,0.1,183.6,0,187.3c0,0.2-0.1,2.1,0,4.5c0.1,2.5,0.1,5,0.5,7.4c0.3,2.1,1.1,5.2,2.9,8.8c1.6,2.4,4.5,5.9,9.1,8.8
			c8,5,16.1,4.7,19.1,4.5h112.1c-2.4,17.8-4.9,35.5-7.3,53.3c-9.8,0-19.5,0-29.3,0c-0.9-0.1-3.4-0.2-5.5,1.5
			c-3.4,2.6-2.8,7.5-2.7,8.7c0.2,1.5,0.5,4.2,2.8,6c2.2,1.7,4.8,1.5,5.5,1.5h138.2c0.9,0.1,2.6,0.1,4.5-0.9c2.7-1.4,4.3-4.3,4.3-7.2
			c0.1-3.4-2-5.6-2.6-6.2c-1.6-1.7-3.4-2.3-4.3-2.6c-9.8-0.1-19.5-0.2-29.3-0.3c-3-17.8-5.9-35.6-8.9-53.4l113.1-0.1
			c1.6,0.2,13.6,1.2,22.6-7.9c7.3-7.4,7.9-16.5,7.9-18.6v-194.1C671.8-112.2,671.1-121,664.2-128.4z M656.8-107.7V52.5H335.1V-113
			c0.1-0.9,0.4-4.3,3.3-7.1c3.8-3.6,8.7-2.9,9.3-2.8h297.7c0.9,0.2,5.9,1.1,9.1,5.9C657.2-113,656.9-108.8,656.8-107.7z"/>
		<g>
			
				<linearGradient id="SVGID_2_" gradientUnits="userSpaceOnUse" x1="488.3231" y1="356.4014" x2="502.8231" y2="356.4014" gradientTransform="matrix(1 0 0 -1 0 300)">
				<stop  offset="0" style="stop-color:#1F7EB2"/>
				<stop  offset="0.5153" style="stop-color:#004794"/>
				<stop  offset="1" style="stop-color:#1F7EB2"/>
			</linearGradient>
			<path class="st1" d="M502.8-78.5c-0.7-3.4-3.7-5.9-7.1-6c-3.5-0.1-6.7,2.5-7.4,6V-35c0.3,3.7,3.5,6.7,7.2,6.7
				c3.8,0,6.9-2.9,7.2-6.7L502.8-78.5L502.8-78.5z"/>
			
				<linearGradient id="SVGID_3_" gradientUnits="userSpaceOnUse" x1="446.0772" y1="324.865" x2="545.6483" y2="324.865" gradientTransform="matrix(1 0 0 -1 0 300)">
				<stop  offset="0" style="stop-color:#1F7EB2"/>
				<stop  offset="0.5153" style="stop-color:#004794"/>
				<stop  offset="1" style="stop-color:#1F7EB2"/>
			</linearGradient>
			<path class="st2" d="M497.4,7.4c-3-0.1-15.6-0.4-25.9-10.6c-2.1-2.1-11.2-11.6-10.8-26c0.6-19.5,18-29.6,19-30.2
				c1.9-2.6,2.5-5.9,1.3-8.3c-1.8-3.5-7.5-5.1-12.4-2.1c-3.6,2.3-9.1,6.6-13.8,13.5c-6.7,9.7-8.2,19.5-8.6,24.7
				c-0.3,4.6-1,21.5,11.3,35.9c1.4,1.7,9,10.3,22.3,14.8c6,2,21,5.8,37.1-1.5c3.8-1.7,16.8-8.2,24.1-23.6
				c8.9-18.7,2.5-36.3,1.3-39.3c-1.5-3.5-3.7-8.1-7.4-12.9c-4.2-5.6-8.8-9.4-12.2-11.8c-3.1-2.4-7.5-2.1-10.2,0.7
				c-2.7,2.7-3,7.1-0.6,10.2c3,1.8,9.3,6,13.7,14c3.8,6.9,4.5,13.1,4.6,15.2c0.7,10.4-3.5,18.4-5.7,22c-1.9,2.9-7.1,11.1-17.2,14.3
				C503.1,7.5,499.8,7.4,497.4,7.4z"/>
		</g>
		<g>
			
				<linearGradient id="SVGID_4_" gradientUnits="userSpaceOnUse" x1="465.9985" y1="459.181" x2="524.8508" y2="459.181" gradientTransform="matrix(1 0 0 -1 0 300)">
				<stop  offset="0" style="stop-color:#1F7EB2"/>
				<stop  offset="0.5153" style="stop-color:#004794"/>
				<stop  offset="1" style="stop-color:#1F7EB2"/>
			</linearGradient>
			<path class="st3" d="M496.4-169.5c-3.4-0.1-7.5,0.1-12,0.8c-4.2,0.6-7.9,1.6-10.9,2.6c-4.3,0.9-7.4,4.5-7.5,8.4
				c-0.1,5,4.8,8.3,8.4,8.8c2.1,0.3,3-0.5,7.7-2.1c2.7-1.1,6-2,9.8-2.5c10.9-1.4,19.8,1.9,24.2,4c3.5,0.1,6.7-1.9,8.1-5.1
				c1.4-3.4,0.5-7.4-2.3-9.8c-3.3-1.3-7.5-2.7-12.4-3.7C504.5-169.1,500-169.4,496.4-169.5z"/>
			
				<linearGradient id="SVGID_5_" gradientUnits="userSpaceOnUse" x1="446.8883" y1="491.5569" x2="545.1173" y2="491.5569" gradientTransform="matrix(1 0 0 -1 0 300)">
				<stop  offset="0" style="stop-color:#1F7EB2"/>
				<stop  offset="0.5153" style="stop-color:#004794"/>
				<stop  offset="1" style="stop-color:#1F7EB2"/>
			</linearGradient>
			<path class="st4" d="M495.4-204.6c-10.9,0.3-19.1,2.4-23.8,3.6c-8.5,2.2-15.5,5.1-20.7,7.5c-0.7,0.4-2.2,1.5-3.2,3.4
				c-1.5,3.1-0.5,6.1-0.3,6.7c0.4,1,1.6,3.4,4.1,4.4c2.1,0.8,4.2,0.6,6-0.4c3.1-1.8,7.1-3.9,12.2-5.9c2.9-1.1,8-3.1,14.3-4.3
				c11.2-2.1,20.3-0.6,24.8,0.2c10.8,1.9,19.2,5.8,24.8,9c0.3,0.2,3.5,2.2,6.7,0.9c2.5-1,3.4-3.4,3.9-4.5c0.2-0.5,1.9-4.8-0.3-7.8
				c-0.7-1-1.4-1.3-5.3-3.1c-4.2-2-4.9-2.4-5.8-2.8c0,0-0.2-0.1-0.5-0.2C515.8-205.1,495.4-204.6,495.4-204.6z"/>
			
				<linearGradient id="SVGID_6_" gradientUnits="userSpaceOnUse" x1="427.475" y1="523.4243" x2="565.3339" y2="523.4243" gradientTransform="matrix(1 0 0 -1 0 300)">
				<stop  offset="0" style="stop-color:#1F7EB2"/>
				<stop  offset="0.5153" style="stop-color:#004794"/>
				<stop  offset="1" style="stop-color:#1F7EB2"/>
			</linearGradient>
			<path class="st5" d="M495.3-240.3c-8.1,0.1-14.5,1.1-17.9,1.6c-2,0.3-9.6,1.5-19.6,4.4c-10.2,2.9-15.8,5.6-18.9,7.1
				c-8.6,4.4-10.5,7.1-11.2,9.6c0,0.1,0,0.1,0,0.1c-0.6,2.6,0,5.8,1.8,8c3.2,3.8,8.7,2.9,9.3,2.8c2.5-0.4,3.4-1.4,7.5-4.2
				c0,0,2.9-1.7,8.8-4.6c3.1-1.5,8.1-3.7,14.3-5.4c1.5-0.4,7.2-2,15-2.8c6.1-0.6,10.5-0.5,16.7-0.3c4.9,0.2,8.2,0.3,12.7,0.9
				c5.8,0.9,10,2.2,12.8,3c9.4,2.9,16.1,6.4,20.2,8.5c2.4,1.3,4.4,2.4,5.7,3.2c0.5,0.3,3.7,2.2,7.3,0.9c2.4-0.9,3.6-2.6,4-3.1
				c1-1.5,2-4.4,1.3-7c-0.6-1.9-2.2-3-5.3-5.3c-3.3-2.3-5.9-3.5-5.9-3.5c-4.2-2.4-9.4-5-15.6-7.2c-5.3-1.9-10.3-3.2-14.6-4
				C512.3-239.9,502.5-240.4,495.3-240.3z"/>
		</g>
	</g>
</g>
</svg>
