<?xml version="1.0" encoding="utf-8"?>
<!-- Generator: Adobe Illustrator 19.0.0, SVG Export Plug-In . SVG Version: 6.00 Build 0)  -->
<svg version="1.1" id="Camada_2" xmlns="http://www.w3.org/2000/svg" xmlns:xlink="http://www.w3.org/1999/xlink" x="0px" y="0px"
	 viewBox="194 -104 1000 1000" style="enable-background:new 194 -104 1000 1000;" xml:space="preserve">
<style type="text/css">
	.st0{fill:#F5FAFF;}
</style>
<g>
	<path class="st0" d="M1060.7,172.8c-20-21.5-46.8-21.5-51.1-21.4H332c-6.2,0.2-23.3,1.6-39.2,14.3c-22,17.5-24.6,43-25,47.5
		c0.3,299.4,0.2,421.7,0,430.1c0,0.6-0.1,4.7,0,10.3c0.1,5.7,0.3,11.4,1.2,17c0.8,4.9,2.5,11.9,6.7,20.2c3.7,5.4,10.3,13.6,21,20.2
		c18.5,11.5,37,10.9,44,10.3h257.4c-5.6,40.8-11.2,81.6-16.8,122.4c-22.4,0-44.9,0-67.3,0c-2-0.2-7.8-0.4-12.7,3.4
		c-7.8,6.1-6.5,17.2-6.1,20c0.4,3.5,1.2,9.7,6.5,13.9c5.1,4,11,3.5,12.7,3.4h317.4c2,0.1,6.1,0.1,10.3-2.2c6.1-3.3,9.8-10,9.9-16.6
		c0.1-7.7-4.7-12.9-5.9-14.3c-3.7-3.9-7.9-5.4-9.9-5.9c-22.4-0.2-44.8-0.4-67.2-0.7c-6.8-40.9-13.6-81.8-20.3-122.6l259.8-0.3
		c3.7,0.4,31.1,2.7,51.9-18.2c16.8-16.9,18.1-37.8,18.2-42.8V215.6C1078.3,209.9,1076.6,189.9,1060.7,172.8z M1043.7,220.4v367.9
		H305.1V208.1c0.1-2,0.9-10,7.5-16.2c8.7-8.3,20.1-6.6,21.4-6.3h683.6c2.1,0.4,13.6,2.6,21,13.5
		C1044.8,208.2,1044,217.8,1043.7,220.4z"/>
	<g>
		<path class="st0" d="M689.3,279.1c-1.6-7.9-8.4-13.6-16.4-13.7c-8.1-0.1-15.3,5.7-16.9,13.7v100.1c0.7,8.6,8,15.3,16.6,15.3
			c8.6,0,15.9-6.7,16.6-15.3L689.3,279.1L689.3,279.1z"/>
		<path class="st0" d="M676.8,476.3c-6.8-0.2-35.9-1-59.4-24.3c-4.7-4.7-25.7-26.6-24.7-59.8c1.4-44.7,41.4-68,43.7-69.3
			c4.5-6,5.8-13.5,2.9-19c-4.2-8-17.3-11.8-28.5-4.8c-8.2,5.3-20.8,15.1-31.7,30.9c-15.3,22.3-18.9,44.7-19.8,56.7
			c-0.8,10.5-2.2,49.3,25.9,82.5c3.3,3.9,20.6,23.8,51.2,34.1c13.7,4.6,48.1,13.4,85.3-3.4c8.7-3.9,38.7-18.8,55.4-54.1
			c20.5-43,5.6-83.3,2.9-90.3c-3.3-8.2-8.6-18.6-16.9-29.6c-9.7-12.8-20.1-21.6-28-27.2c-7.1-5.4-17.2-4.7-23.5,1.6
			c-6.2,6.3-6.9,16.3-1.5,23.4c7,4.1,21.3,13.8,31.6,32.1c8.8,15.8,10.2,30.1,10.6,34.9c1.6,24-7.9,42.2-13.2,50.4
			c-4.3,6.7-16.3,25.6-39.6,32.7C690,476.6,682.2,476.5,676.8,476.3z"/>
	</g>
	<g>
		<path class="st0" d="M674.5,70.3c-7.8-0.2-17.1,0.2-27.5,1.8c-9.6,1.5-18,3.7-25.1,5.9c-10,2-17,10.2-17.2,19.2
			c-0.3,11.6,11.1,19.1,19.2,20.1c4.7,0.6,6.9-1.2,17.6-4.8c6.1-2.4,13.7-4.7,22.5-5.8c25.1-3.3,45.4,4.4,55.6,9.2
			c8.1,0.3,15.5-4.4,18.6-11.7c3.3-7.7,1.2-16.9-5.3-22.5c-7.7-3.1-17.2-6.2-28.4-8.4C693.1,71.1,682.9,70.3,674.5,70.3z"/>
		<path class="st0" d="M672.3-10.3c-25.1,0.7-43.8,5.4-54.7,8.2C598,3,582,9.5,570,15.2c-1.6,1-5.1,3.4-7.3,7.9
			c-3.5,7.2-1.1,14.1-0.6,15.4c1,2.3,3.7,7.9,9.5,10.1c4.8,1.8,9.7,1.3,13.7-1c7-4.1,16.4-8.9,27.9-13.5c6.6-2.6,18.3-7.2,32.9-9.9
			c25.8-4.9,46.6-1.4,57,0.4c24.8,4.3,44.1,13.2,57,20.6c0.7,0.5,7.9,5.1,15.4,2c5.8-2.4,7.9-7.8,8.9-10.3c0.5-1.2,4.4-11.1-0.6-18
			c-1.6-2.3-3.3-2.9-12.3-7.1c-9.8-4.6-11.2-5.5-13.3-6.4c0,0-0.6-0.3-1.1-0.5C719.1-11.6,672.3-10.3,672.3-10.3z"/>
		<path class="st0" d="M671.9-92.4c-18.7,0.3-33.3,2.5-41.1,3.7c-4.6,0.7-22.1,3.5-45,10c-23.4,6.7-36.3,12.8-43.3,16.4
			c-19.8,10.1-24.1,16.4-25.8,22.1c0,0.1-0.1,0.3-0.1,0.3c-1.5,6,0,13.4,4.2,18.3c7.4,8.7,19.9,6.7,21.3,6.4c5.8-1,7.8-3.2,17.3-9.6
			c0,0,6.6-3.9,20.2-10.5c7.1-3.4,18.6-8.5,32.9-12.5c3.3-0.9,16.5-4.5,34.5-6.3c13.9-1.4,24.2-1.1,38.4-0.6
			c11.3,0.4,18.8,0.6,29.1,2.2c13.3,2,23,4.9,29.5,6.9c21.5,6.6,37.1,14.7,46.3,19.6c5.5,2.9,10,5.5,13.1,7.3c1.1,0.7,8.5,5,16.8,2
			c5.5-2,8.3-6,9.1-7.1c2.3-3.4,4.7-10.2,3-16c-1.3-4.3-5-7-12.3-12.1c-7.6-5.3-13.7-8.1-13.7-8.1c-9.7-5.6-21.7-11.4-35.8-16.5
			c-12.3-4.4-23.6-7.3-33.5-9.2C710.9-91.5,688.5-92.7,671.9-92.4z"/>
	</g>
</g>
</svg>
